<?xml version="1.0" encoding="UTF-8"?>
<!DOCTYPE svg PUBLIC "-//W3C//DTD SVG 1.1//EN" "http://www.w3.org/Graphics/SVG/1.1/DTD/svg11.dtd">
<svg version="1.1" xmlns="http://www.w3.org/2000/svg" xmlns:xlink="http://www.w3.org/1999/xlink" x="0" y="0" width="1404" height="1872" viewBox="0, 0, 1404, 1872">
  <g id="Background">
    <rect x="0" y="0" width="1404" height="1872" fill="#FFFFFF"/>
  </g>
  <g id="Rutenett" display="none">
    <path d="M156.5,104.5 L1403.5,104.5 L1403.5,1871.169 L156.5,1871.169 z" fill="#FFFFFF"/>
    <path d="M156.5,104.5 L1404,104.5" fill-opacity="0" stroke="#000000" stroke-width="1" stroke-miterlimit="10"/>
    <path d="M156.5,156.5 L1404,156.5" fill-opacity="0" stroke="#000000" stroke-width="0.5" stroke-miterlimit="10"/>
    <path d="M156.5,208.5 L1404,208.5" fill-opacity="0" stroke="#000000" stroke-width="0.5" stroke-miterlimit="10"/>
    <path d="M156.5,260.5 L1404,260.5" fill-opacity="0" stroke="#000000" stroke-width="0.5" stroke-miterlimit="10"/>
    <path d="M156.5,312.5 L1404,312.5" fill-opacity="0" stroke="#000000" stroke-width="0.5" stroke-miterlimit="10"/>
    <path d="M156.5,365.5 L1404,365.5" fill-opacity="0" stroke="#000000" stroke-width="0.5" stroke-miterlimit="10"/>
    <path d="M156.5,417.5 L1404,417.5" fill-opacity="0" stroke="#000000" stroke-width="0.5" stroke-miterlimit="10"/>
    <path d="M156.5,469.5 L1404,469.5" fill-opacity="0" stroke="#000000" stroke-width="0.5" stroke-miterlimit="10"/>
    <path d="M156.5,521.5 L1404,521.5" fill-opacity="0" stroke="#000000" stroke-width="0.5" stroke-miterlimit="10"/>
    <path d="M156.5,573.5 L1404,573.5" fill-opacity="0" stroke="#000000" stroke-width="0.5" stroke-miterlimit="10"/>
    <path d="M156.5,625.5 L1404,625.5" fill-opacity="0" stroke="#000000" stroke-width="0.5" stroke-miterlimit="10"/>
    <path d="M156.5,677.5 L1404,677.5" fill-opacity="0" stroke="#000000" stroke-width="0.5" stroke-miterlimit="10"/>
    <path d="M156.5,729.5 L1404,729.5" fill-opacity="0" stroke="#000000" stroke-width="0.5" stroke-miterlimit="10"/>
    <path d="M156.5,781.5 L1404,781.5" fill-opacity="0" stroke="#000000" stroke-width="0.5" stroke-miterlimit="10"/>
    <path d="M156.5,833.5 L1404,833.5" fill-opacity="0" stroke="#000000" stroke-width="0.5" stroke-miterlimit="10"/>
    <path d="M156.5,885.5 L1404,885.5" fill-opacity="0" stroke="#000000" stroke-width="0.5" stroke-miterlimit="10"/>
    <path d="M156.5,937.5 L1404,937.5" fill-opacity="0" stroke="#000000" stroke-width="0.5" stroke-miterlimit="10"/>
    <path d="M156.5,990.5 L1404,990.5" fill-opacity="0" stroke="#000000" stroke-width="0.5" stroke-miterlimit="10"/>
    <path d="M156.5,1042.5 L1404,1042.5" fill-opacity="0" stroke="#000000" stroke-width="0.5" stroke-miterlimit="10"/>
    <path d="M156.5,1094.5 L1404,1094.5" fill-opacity="0" stroke="#000000" stroke-width="0.5" stroke-miterlimit="10"/>
    <path d="M156.5,1146.5 L1404,1146.5" fill-opacity="0" stroke="#000000" stroke-width="0.5" stroke-miterlimit="10"/>
    <path d="M156.5,1198.5 L1404,1198.5" fill-opacity="0" stroke="#000000" stroke-width="0.5" stroke-miterlimit="10"/>
    <path d="M156.5,1250.5 L1404,1250.5" fill-opacity="0" stroke="#000000" stroke-width="0.5" stroke-miterlimit="10"/>
    <path d="M156.5,1302.5 L1404,1302.5" fill-opacity="0" stroke="#000000" stroke-width="0.5" stroke-miterlimit="10"/>
    <path d="M156.5,1354.5 L1404,1354.5" fill-opacity="0" stroke="#000000" stroke-width="0.5" stroke-miterlimit="10"/>
    <path d="M156.5,1406.5 L1404,1406.5" fill-opacity="0" stroke="#000000" stroke-width="0.5" stroke-miterlimit="10"/>
    <path d="M156.5,1458.5 L1404,1458.5" fill-opacity="0" stroke="#000000" stroke-width="0.5" stroke-miterlimit="10"/>
    <path d="M156.5,1510.5 L1404,1510.5" fill-opacity="0" stroke="#000000" stroke-width="0.5" stroke-miterlimit="10"/>
    <path d="M156.5,1562.5 L1404,1562.5" fill-opacity="0" stroke="#000000" stroke-width="0.5" stroke-miterlimit="10"/>
    <path d="M156.5,1614.5 L1404,1614.5" fill-opacity="0" stroke="#000000" stroke-width="0.5" stroke-miterlimit="10"/>
    <path d="M156.5,1667.5 L1404,1667.5" fill-opacity="0" stroke="#000000" stroke-width="0.5" stroke-miterlimit="10"/>
    <path d="M156.5,1719.5 L1404,1719.5" fill-opacity="0" stroke="#000000" stroke-width="0.5" stroke-miterlimit="10"/>
    <path d="M156.5,1771.5 L1404,1771.5" fill-opacity="0" stroke="#000000" stroke-width="0.5" stroke-miterlimit="10"/>
    <path d="M156.5,1823.5 L1404,1823.5" fill-opacity="0" stroke="#000000" stroke-width="0.5" stroke-miterlimit="10"/>
    <path d="M1354.5,105 L1354.5,1872" fill-opacity="0" stroke="#000000" stroke-width="0.5" stroke-miterlimit="10"/>
    <path d="M1301.5,105 L1301.5,1872" fill-opacity="0" stroke="#000000" stroke-width="0.5" stroke-miterlimit="10"/>
    <path d="M1249.5,105 L1249.5,1872" fill-opacity="0" stroke="#000000" stroke-width="0.5" stroke-miterlimit="10"/>
    <path d="M1197.5,105 L1197.5,1872" fill-opacity="0" stroke="#000000" stroke-width="0.5" stroke-miterlimit="10"/>
    <path d="M1145.5,105 L1145.5,1872" fill-opacity="0" stroke="#000000" stroke-width="0.5" stroke-miterlimit="10"/>
    <path d="M1093.5,105 L1093.5,1872" fill-opacity="0" stroke="#000000" stroke-width="0.5" stroke-miterlimit="10"/>
    <path d="M1041.5,105 L1041.5,1872" fill-opacity="0" stroke="#000000" stroke-width="0.5" stroke-miterlimit="10"/>
    <path d="M989.5,105 L989.5,1872" fill-opacity="0" stroke="#000000" stroke-width="0.5" stroke-miterlimit="10"/>
    <path d="M937.5,105 L937.5,1872" fill-opacity="0" stroke="#000000" stroke-width="0.5" stroke-miterlimit="10"/>
    <path d="M885.5,105 L885.5,1871.557" fill-opacity="0" stroke="#000000" stroke-width="0.5" stroke-miterlimit="10"/>
    <path d="M833.5,105 L833.5,1872" fill-opacity="0" stroke="#000000" stroke-width="0.5" stroke-miterlimit="10"/>
    <path d="M781.5,105 L781.5,1872" fill-opacity="0" stroke="#000000" stroke-width="0.5" stroke-miterlimit="10"/>
    <path d="M729.5,105 L729.5,1872" fill-opacity="0" stroke="#000000" stroke-width="0.5" stroke-miterlimit="10"/>
    <path d="M677.5,105 L677.5,1872" fill-opacity="0" stroke="#000000" stroke-width="0.5" stroke-miterlimit="10"/>
    <path d="M624.5,105 L624.5,1872" fill-opacity="0" stroke="#000000" stroke-width="0.5" stroke-miterlimit="10"/>
    <path d="M572.5,105 L572.5,1872" fill-opacity="0" stroke="#000000" stroke-width="0.5" stroke-miterlimit="10"/>
    <path d="M520.5,105 L520.5,1872" fill-opacity="0" stroke="#000000" stroke-width="0.5" stroke-miterlimit="10"/>
    <path d="M468.5,105 L468.5,1872" fill-opacity="0" stroke="#000000" stroke-width="0.5" stroke-miterlimit="10"/>
    <path d="M416.5,105 L416.5,1872" fill-opacity="0" stroke="#000000" stroke-width="0.5" stroke-miterlimit="10"/>
    <path d="M364.5,105 L364.5,1872" fill-opacity="0" stroke="#000000" stroke-width="0.5" stroke-miterlimit="10"/>
    <path d="M312.5,105 L312.5,1872" fill-opacity="0" stroke="#000000" stroke-width="0.5" stroke-miterlimit="10"/>
    <path d="M260.5,105 L260.5,1872" fill-opacity="0" stroke="#000000" stroke-width="0.5" stroke-miterlimit="10"/>
    <path d="M208.5,105 L208.5,1872" fill-opacity="0" stroke="#000000" stroke-width="0.5" stroke-miterlimit="10"/>
    <path d="M156.5,105 L156.5,1872" fill-opacity="0" stroke="#000000" stroke-width="1" stroke-miterlimit="10"/>
    <path d="M156.5,1871.5 L1404,1871.5" fill-opacity="0" stroke="#000000" stroke-width="1"/>
    <path d="M1404,104.5 L1404,1872" fill-opacity="0" stroke="#000000" stroke-width="1"/>
  </g>
  <g id="Linjer" display="none">
    <path d="M157,104.916 L1404,104.916 L1404,1871.584 L157,1871.584 z" fill="#FFFFFF"/>
    <path d="M156.5,104.5 L1404,104.5" fill-opacity="0" stroke="#000000" stroke-width="1" stroke-miterlimit="10"/>
    <path d="M156.5,156.5 L1404,156.5" fill-opacity="0" stroke="#000000" stroke-width="0.5" stroke-miterlimit="10"/>
    <path d="M156.5,208.5 L1404,208.5" fill-opacity="0" stroke="#000000" stroke-width="0.5" stroke-miterlimit="10"/>
    <path d="M156.5,260.5 L1404,260.5" fill-opacity="0" stroke="#000000" stroke-width="0.5" stroke-miterlimit="10"/>
    <path d="M156.5,312.5 L1404,312.5" fill-opacity="0" stroke="#000000" stroke-width="0.5" stroke-miterlimit="10"/>
    <path d="M156.5,365.5 L1404,365.5" fill-opacity="0" stroke="#000000" stroke-width="0.5" stroke-miterlimit="10"/>
    <path d="M156.5,417.5 L1404,417.5" fill-opacity="0" stroke="#000000" stroke-width="0.5" stroke-miterlimit="10"/>
    <path d="M156.5,469.5 L1404,469.5" fill-opacity="0" stroke="#000000" stroke-width="0.5" stroke-miterlimit="10"/>
    <path d="M156.5,521.5 L1404,521.5" fill-opacity="0" stroke="#000000" stroke-width="0.5" stroke-miterlimit="10"/>
    <path d="M156.5,573.5 L1404,573.5" fill-opacity="0" stroke="#000000" stroke-width="0.5" stroke-miterlimit="10"/>
    <path d="M156.5,625.5 L1404,625.5" fill-opacity="0" stroke="#000000" stroke-width="0.5" stroke-miterlimit="10"/>
    <path d="M156.5,677.5 L1404,677.5" fill-opacity="0" stroke="#000000" stroke-width="0.5" stroke-miterlimit="10"/>
    <path d="M156.5,729.5 L1404,729.5" fill-opacity="0" stroke="#000000" stroke-width="0.5" stroke-miterlimit="10"/>
    <path d="M156.5,781.5 L1404,781.5" fill-opacity="0" stroke="#000000" stroke-width="0.5" stroke-miterlimit="10"/>
    <path d="M156.5,833.5 L1404,833.5" fill-opacity="0" stroke="#000000" stroke-width="0.5" stroke-miterlimit="10"/>
    <path d="M156.5,885.5 L1404,885.5" fill-opacity="0" stroke="#000000" stroke-width="0.5" stroke-miterlimit="10"/>
    <path d="M156.5,937.5 L1404,937.5" fill-opacity="0" stroke="#000000" stroke-width="0.5" stroke-miterlimit="10"/>
    <path d="M156.5,990.5 L1404,990.5" fill-opacity="0" stroke="#000000" stroke-width="0.5" stroke-miterlimit="10"/>
    <path d="M156.5,1042.5 L1404,1042.5" fill-opacity="0" stroke="#000000" stroke-width="0.5" stroke-miterlimit="10"/>
    <path d="M156.5,1094.5 L1404,1094.5" fill-opacity="0" stroke="#000000" stroke-width="0.5" stroke-miterlimit="10"/>
    <path d="M156.5,1146.5 L1404,1146.5" fill-opacity="0" stroke="#000000" stroke-width="0.5" stroke-miterlimit="10"/>
    <path d="M156.5,1198.5 L1404,1198.5" fill-opacity="0" stroke="#000000" stroke-width="0.5" stroke-miterlimit="10"/>
    <path d="M156.5,1250.5 L1404,1250.5" fill-opacity="0" stroke="#000000" stroke-width="0.5" stroke-miterlimit="10"/>
    <path d="M156.5,1302.5 L1404,1302.5" fill-opacity="0" stroke="#000000" stroke-width="0.5" stroke-miterlimit="10"/>
    <path d="M156.5,1354.5 L1404,1354.5" fill-opacity="0" stroke="#000000" stroke-width="0.5" stroke-miterlimit="10"/>
    <path d="M156.5,1406.5 L1404,1406.5" fill-opacity="0" stroke="#000000" stroke-width="0.5" stroke-miterlimit="10"/>
    <path d="M156.5,1458.5 L1404,1458.5" fill-opacity="0" stroke="#000000" stroke-width="0.5" stroke-miterlimit="10"/>
    <path d="M156.5,1510.5 L1404,1510.5" fill-opacity="0" stroke="#000000" stroke-width="0.5" stroke-miterlimit="10"/>
    <path d="M156.5,1562.5 L1404,1562.5" fill-opacity="0" stroke="#000000" stroke-width="0.5" stroke-miterlimit="10"/>
    <path d="M156.5,1614.5 L1404,1614.5" fill-opacity="0" stroke="#000000" stroke-width="0.5" stroke-miterlimit="10"/>
    <path d="M156.5,1667.5 L1404,1667.5" fill-opacity="0" stroke="#000000" stroke-width="0.5" stroke-miterlimit="10"/>
    <path d="M156.5,1719.5 L1404,1719.5" fill-opacity="0" stroke="#000000" stroke-width="0.5" stroke-miterlimit="10"/>
    <path d="M156.5,1771.5 L1404,1771.5" fill-opacity="0" stroke="#000000" stroke-width="0.5" stroke-miterlimit="10"/>
    <path d="M156.5,1823.5 L1404,1823.5" fill-opacity="0" stroke="#000000" stroke-width="0.5" stroke-miterlimit="10"/>
    <path d="M156.5,105 L156.5,1872" fill-opacity="0" stroke="#000000" stroke-width="1" stroke-miterlimit="10"/>
    <path d="M156.5,1871.5 L1404,1871.5" fill-opacity="0" stroke="#000000" stroke-width="1"/>
    <path d="M1404,104.5 L1404,1872" fill-opacity="0" stroke="#000000" stroke-width="1"/>
  </g>
  <g id="Linjer,_oppgaveliste">
    <path d="M157,104.916 L1404,104.916 L1404,1871.584 L157,1871.584 z" fill="#FFFFFF"/>
    <path d="M156.5,1562.5 L1199.667,1562.5 L1199.667,1614.5 L156.5,1614.5 L156.5,1562.5 z" fill="#EEEEEE"/>
    <path d="M156.5,104.5 L1404,104.5" fill-opacity="0" stroke="#000000" stroke-width="1" stroke-miterlimit="10"/>
    <path d="M156.5,156.5 L1404,156.5" fill-opacity="0" stroke="#000000" stroke-width="0.5" stroke-miterlimit="10"/>
    <path d="M156.5,208.5 L1404,208.5" fill-opacity="0" stroke="#000000" stroke-width="0.5" stroke-miterlimit="10"/>
    <path d="M156.5,260.5 L1404,260.5" fill-opacity="0" stroke="#000000" stroke-width="0.5" stroke-miterlimit="10"/>
    <path d="M156.5,312.5 L1404,312.5" fill-opacity="0" stroke="#000000" stroke-width="0.5" stroke-miterlimit="10"/>
    <path d="M156.5,365.5 L1404,365.5" fill-opacity="0" stroke="#000000" stroke-width="0.5" stroke-miterlimit="10"/>
    <path d="M156.5,417.5 L1404,417.5" fill-opacity="0" stroke="#000000" stroke-width="0.5" stroke-miterlimit="10"/>
    <path d="M156.5,469.5 L1404,469.5" fill-opacity="0" stroke="#000000" stroke-width="0.5" stroke-miterlimit="10"/>
    <path d="M156.5,521.5 L1404,521.5" fill-opacity="0" stroke="#000000" stroke-width="0.5" stroke-miterlimit="10"/>
    <path d="M156.5,573.5 L1404,573.5" fill-opacity="0" stroke="#000000" stroke-width="0.5" stroke-miterlimit="10"/>
    <path d="M156.5,625.5 L1404,625.5" fill-opacity="0" stroke="#000000" stroke-width="0.5" stroke-miterlimit="10"/>
    <path d="M156.5,677.5 L1404,677.5" fill-opacity="0" stroke="#000000" stroke-width="0.5" stroke-miterlimit="10"/>
    <path d="M156.5,729.5 L1404,729.5" fill-opacity="0" stroke="#000000" stroke-width="0.5" stroke-miterlimit="10"/>
    <path d="M156.5,781.5 L1404,781.5" fill-opacity="0" stroke="#000000" stroke-width="0.5" stroke-miterlimit="10"/>
    <path d="M156.5,833.5 L1404,833.5" fill-opacity="0" stroke="#000000" stroke-width="0.5" stroke-miterlimit="10"/>
    <path d="M156.5,885.5 L1404,885.5" fill-opacity="0" stroke="#000000" stroke-width="0.5" stroke-miterlimit="10"/>
    <path d="M156.5,937.5 L1404,937.5" fill-opacity="0" stroke="#000000" stroke-width="0.5" stroke-miterlimit="10"/>
    <path d="M156.5,990.5 L1404,990.5" fill-opacity="0" stroke="#000000" stroke-width="0.5" stroke-miterlimit="10"/>
    <path d="M156.5,1042.5 L1404,1042.5" fill-opacity="0" stroke="#000000" stroke-width="0.5" stroke-miterlimit="10"/>
    <path d="M156.5,1094.5 L1404,1094.5" fill-opacity="0" stroke="#000000" stroke-width="0.5" stroke-miterlimit="10"/>
    <path d="M156.5,1146.5 L1404,1146.5" fill-opacity="0" stroke="#000000" stroke-width="0.5" stroke-miterlimit="10"/>
    <path d="M156.5,1198.5 L1404,1198.5" fill-opacity="0" stroke="#000000" stroke-width="0.5" stroke-miterlimit="10"/>
    <path d="M156.5,1250.5 L1404,1250.5" fill-opacity="0" stroke="#000000" stroke-width="0.5" stroke-miterlimit="10"/>
    <path d="M156.5,1302.5 L1404,1302.5" fill-opacity="0" stroke="#000000" stroke-width="0.5" stroke-miterlimit="10"/>
    <path d="M156.5,1354.5 L1404,1354.5" fill-opacity="0" stroke="#000000" stroke-width="0.5" stroke-miterlimit="10"/>
    <path d="M156.5,1406.5 L1404,1406.5" fill-opacity="0" stroke="#000000" stroke-width="0.5" stroke-miterlimit="10"/>
    <path d="M156.5,1458.5 L1404,1458.5" fill-opacity="0" stroke="#000000" stroke-width="0.5" stroke-miterlimit="10"/>
    <path d="M156.5,1510.5 L1404,1510.5" fill-opacity="0" stroke="#000000" stroke-width="0.5" stroke-miterlimit="10"/>
    <path d="M156.5,1562.5 L1199.667,1562.5" fill-opacity="0" stroke="#000000" stroke-width="0.5" stroke-miterlimit="10"/>
    <path d="M156.5,1614.5 L1199.667,1614.5" fill-opacity="0" stroke="#000000" stroke-width="0.5" stroke-miterlimit="10"/>
    <path d="M1209.667,1562.5 L1404,1562.5 L1404,1614.803 L1209.667,1614.803 L1209.667,1562.5 z" fill="#EEEEEE"/>
    <path d="M1209.667,1562.5 L1404,1562.5" fill-opacity="0" stroke="#000000" stroke-width="0.5"/>
    <path d="M226,1668.803 L1199.667,1668.803" fill-opacity="0" stroke="#000000" stroke-width="0.5" stroke-miterlimit="10"/>
    <path d="M226,1720.5 L1199.667,1719.5" fill-opacity="0" stroke="#000000" stroke-width="0.5" stroke-miterlimit="10"/>
    <path d="M1209.667,1668.803 L1404,1668.803" fill-opacity="0" stroke="#000000" stroke-width="0.5"/>
    <path d="M1209.667,1719.5 L1404,1719.5" fill-opacity="0" stroke="#000000" stroke-width="0.5"/>
    <path d="M1213,1771.5 L1404,1771.5" fill-opacity="0" stroke="#000000" stroke-width="0.5"/>
    <path d="M1209.667,1822.5 L1404,1822.5" fill-opacity="0" stroke="#000000" stroke-width="0.5"/>
    <path d="M226,1771 L1199.667,1771.5" fill-opacity="0" stroke="#000000" stroke-width="0.5" stroke-miterlimit="10"/>
    <path d="M226,1822.5 L1199.667,1822.5" fill-opacity="0" stroke="#000000" stroke-width="0.5" stroke-miterlimit="10"/>
    <path d="M156.5,105 L156.5,1872" fill-opacity="0" stroke="#000000" stroke-width="1" stroke-miterlimit="10"/>
    <path d="M156.5,1871.5 L1404,1871.5" fill-opacity="0" stroke="#000000" stroke-width="1"/>
    <path d="M1404,104.5 L1404,1872" fill-opacity="0" stroke="#000000" stroke-width="1"/>
    <text transform="matrix(1, 0, 0, 1, 233.171, 1592.652)">
      <tspan x="-58.812" y="1.848" font-family="HelveticaNeue" font-size="25" fill="#000000">Oppgaver:</tspan>
    </text>
    <text transform="matrix(1, 0, 0, 1, 1306.833, 1592.652)">
      <tspan x="-24.3" y="1.848" font-family="HelveticaNeue" font-size="25" fill="#000000">Frist</tspan>
    </text>
    <path d="M175,1632 L211,1632 L211,1668 L175,1668 L175,1632 z" fill-opacity="0" stroke="#000000" stroke-width="1"/>
    <path d="M175,1683.5 L211,1683.5 L211,1719.5 L175,1719.5 L175,1683.5 z" fill-opacity="0" stroke="#000000" stroke-width="1"/>
    <path d="M175,1735.5 L211,1735.5 L211,1771.5 L175,1771.5 L175,1735.5 z" fill-opacity="0" stroke="#000000" stroke-width="1"/>
    <path d="M175,1786.5 L211,1786.5 L211,1822.5 L175,1822.5 L175,1786.5 z" fill-opacity="0" stroke="#000000" stroke-width="1"/>
    <path d="M1209.667,1614.803 L1404,1614.803" fill-opacity="0" stroke="#000000" stroke-width="0.5"/>
    <g>
      <path d="M1585,1546 L1581,1546" fill-opacity="0" stroke="#000000" stroke-width="0.5"/>
      <path d="M1581,1547.5 L1585,1546 L1581,1544.5 z" fill="#000000" fill-opacity="1" stroke="#000000" stroke-width="0.5" stroke-opacity="1"/>
    </g>
  </g>
  <g id="Tittel">
    <text transform="matrix(1, 0, 0, 1, 1279.667, 69.583)">
      <tspan x="-99.667" y="2.417" font-family="HelveticaNeue" font-size="28" fill="#515151">Side:        /</tspan>
    </text>
    <text transform="matrix(1, 0, 0, 1, 187.833, 69.25)">
      <tspan x="-33.712" y="2.417" font-family="HelveticaNeue" font-size="28" fill="#515151">Dato:</tspan>
    </text>
    <text transform="matrix(1, 0, 0, 1, 520.417, 70.417)">
      <tspan x="-39.69" y="2.417" font-family="HelveticaNeue" font-size="28" fill="#515151">Emne:</tspan>
    </text>
    <path d="M229.5,79.333 L468.667,79.333" fill-opacity="0" stroke="#515151" stroke-width="2"/>
    <path d="M567.499,79.333 L1173,79.333" fill-opacity="0" stroke="#515151" stroke-width="2"/>
    <path d="M1248,79.333 L1379.333,79.333" fill-opacity="0" stroke="#515151" stroke-width="2"/>
  </g>
  <g id="GitHub_adresse_/_logo">
    <g id="itema-logo_grå_farge">
      <path d="M74.799,1668.803 C74.674,1668.803 74.422,1668.864 74.17,1668.992 C72.097,1669.999 70.267,1670.445 67.556,1670.445 L55.038,1670.445 C53.189,1670.445 52.172,1670.507 51.029,1670.822 C47.241,1671.896 45.159,1675.431 45.159,1680.914 C45.159,1683.943 45.725,1686.971 46.672,1689.622 C47.176,1690.95 47.495,1691.388 48.06,1691.388 C48.19,1691.388 48.378,1691.327 48.693,1691.264 L52.423,1689.937 C52.872,1689.812 52.998,1689.622 52.998,1689.307 C52.998,1689.182 52.935,1688.867 52.872,1688.675 C51.723,1685.838 51.218,1683.691 51.218,1681.863 C51.218,1678.707 52.298,1677.761 55.866,1677.761 L57.78,1677.761 L57.78,1678.266 C57.842,1683.315 58.283,1685.776 59.548,1688.548 C61.125,1692.018 63.964,1693.723 68.188,1693.723 C73.855,1693.723 77.44,1690.128 77.44,1684.512 C77.44,1681.359 76.434,1679.15 73.918,1676.691 C76.434,1675.995 77.566,1675.431 77.566,1674.797 C77.566,1674.67 77.505,1674.356 77.376,1674.102 L75.427,1669.308 C75.302,1668.992 75.051,1668.803 74.799,1668.803 M69.574,1677.761 C71.212,1679.213 71.969,1680.791 71.969,1682.431 C71.969,1684.638 70.142,1686.342 67.745,1686.342 C64.343,1686.342 62.83,1683.88 62.83,1678.394 L62.83,1677.761 z M75.51,1699.757 L55.333,1699.757 C51.47,1699.757 50.019,1700.007 48.251,1700.892 C46.294,1701.838 45.159,1703.985 45.159,1706.759 C45.159,1710.168 46.294,1712.696 49.45,1716.169 C46.546,1717.556 45.159,1719.702 45.159,1722.92 C45.159,1726.266 46.355,1728.663 49.45,1732.009 C46.798,1732.575 45.094,1733.334 45.094,1733.965 C45.094,1734.093 45.094,1734.341 45.22,1734.596 L46.862,1739.578 C47.052,1740.084 47.241,1740.274 47.557,1740.274 C47.745,1740.274 47.998,1740.211 48.251,1740.084 C50.585,1739.138 51.723,1738.947 54.891,1738.947 L75.51,1738.947 C76.456,1738.947 76.582,1738.821 76.582,1737.939 L76.582,1732.325 C76.582,1731.379 76.456,1731.252 75.51,1731.252 L54.065,1731.252 C52.233,1729.169 51.47,1727.589 51.47,1726.014 C51.47,1723.866 52.607,1723.236 56.663,1723.236 L75.51,1723.236 C76.456,1723.236 76.582,1723.107 76.582,1722.161 L76.582,1716.549 C76.582,1715.665 76.456,1715.54 75.51,1715.54 L54.065,1715.54 C52.039,1713.327 51.282,1711.938 51.282,1710.23 C51.282,1708.211 52.545,1707.452 56.09,1707.452 L75.51,1707.452 C76.456,1707.452 76.582,1707.324 76.582,1706.445 L76.582,1700.829 C76.582,1699.945 76.456,1699.757 75.51,1699.757 M61.934,1745.475 C50.753,1745.475 45.155,1749.511 45.155,1757.636 C45.155,1765.689 51.708,1770.991 61.682,1770.991 C72.017,1770.991 77.633,1766.197 77.633,1757.322 C77.633,1754.619 77.191,1752.224 76.246,1749.703 C75.298,1747.179 74.729,1746.297 73.974,1746.297 C73.783,1746.297 73.657,1746.358 73.28,1746.487 L69.682,1748.063 C69.305,1748.191 69.116,1748.44 69.116,1748.757 C69.116,1748.947 69.177,1749.2 69.368,1749.511 C70.628,1751.912 71.258,1754.241 71.258,1756.569 C71.258,1761.031 68.737,1763.17 63.505,1763.295 L63.505,1746.865 C63.505,1745.728 63.193,1745.475 61.934,1745.475 M57.844,1753.613 L57.844,1763.17 C52.73,1762.602 50.753,1761.222 50.753,1758.015 C50.753,1754.934 52.665,1753.739 57.844,1753.613 M75.173,1772.756 C75.048,1772.756 74.982,1772.756 74.859,1772.819 L74.539,1772.885 L70.248,1773.893 C69.806,1774.019 69.616,1774.209 69.616,1774.526 C69.616,1774.65 69.616,1774.84 69.744,1775.028 C70.627,1777.303 70.753,1777.871 70.753,1779.069 C70.753,1780.963 70.058,1781.34 66.837,1781.34 L51.87,1781.34 L51.87,1775.283 C51.87,1774.587 51.744,1774.335 50.988,1774.209 L47.404,1773.387 C47.279,1773.387 47.214,1773.326 47.152,1773.326 L46.902,1773.326 C46.397,1773.326 46.272,1773.514 46.272,1774.335 L46.272,1781.34 L39.99,1781.34 C39.233,1781.34 38.917,1781.533 38.917,1781.974 C38.917,1782.037 38.981,1782.101 38.981,1782.29 L38.981,1782.478 L39.801,1788.156 C39.929,1789.038 40.054,1789.165 40.874,1789.165 L41.921,1789.165 L41.921,1789.155 L57.493,1789.155 L57.493,1789.165 L67.974,1789.165 C70.942,1789.165 72.08,1788.978 73.595,1788.281 C76.182,1787.083 77.633,1784.431 77.633,1780.839 C77.633,1778.501 77.065,1775.787 76.182,1773.641 C75.928,1773.01 75.677,1772.756 75.173,1772.756 M59.661,1794.137 C58.575,1793.975 57.482,1793.878 56.389,1793.878 C44.51,1793.878 36.044,1805.53 36.044,1818.529 C36.044,1836.199 48.609,1847.676 61.733,1847.676 C74.055,1847.676 84.991,1839.646 84.991,1824.755 C84.991,1820.075 83.983,1816.125 82.689,1812.957 C82.426,1812.499 82.082,1812.175 81.907,1812.037 C81.834,1811.997 81.777,1811.95 81.698,1811.917 C80.914,1811.598 80.876,1812.158 80.983,1812.701 C81.148,1813.161 81.307,1813.642 81.444,1814.17 C81.865,1815.799 82.13,1817.763 82.13,1820.14 C82.13,1833.645 72.373,1838.957 62.01,1838.957 C50.567,1838.957 40.098,1834.732 40.098,1816.826 C40.098,1807.047 45.774,1801.118 56.389,1801.118 C65.274,1801.118 70.762,1807.411 71.712,1812.364 C71.777,1814.02 70.19,1814.414 69.089,1814.48 L47.342,1814.48 C46.397,1814.48 46.272,1814.607 46.272,1815.49 L46.272,1826.911 C46.272,1827.795 46.397,1827.921 47.342,1827.921 L50.863,1827.921 C51.806,1827.921 51.932,1827.795 51.932,1826.911 L51.932,1822.241 L76.963,1822.241 C77.906,1822.241 78.034,1822.112 78.037,1821.178 L78.037,1821.155 L78.037,1820.66 L78.043,1820.659 L78.043,1818.711 C78.013,1818.109 77.811,1814.327 76.225,1809.766 C76.173,1809.627 76.122,1809.493 76.066,1809.349 C71.867,1797.95 63.899,1794.933 59.661,1794.137" fill="#383838"/>
      <g>
        <path d="M43.827,1818.864 C43.827,1815.777 41.323,1813.272 38.231,1813.272 C35.143,1813.272 32.637,1815.777 32.637,1818.864 C32.637,1821.954 35.143,1824.46 38.231,1824.46 C41.323,1824.46 43.827,1821.954 43.827,1818.864" fill="#FFFFFF"/>
        <path d="M43.827,1818.864 C43.827,1815.777 41.323,1813.272 38.231,1813.272 C35.143,1813.272 32.637,1815.777 32.637,1818.864 C32.637,1821.954 35.143,1824.46 38.231,1824.46 C41.323,1824.46 43.827,1821.954 43.827,1818.864" fill-opacity="0" stroke="#515151" stroke-width="2"/>
      </g>
    </g>
    <g>
      <text transform="matrix(-0, -1, 1, -0, 100.172, 1758.24)">
        <tspan x="-85.14" y="8" font-family="HelveticaNeue" font-size="24" fill="#FFFFFF">https://itema.no</tspan>
      </text>
      <path d="M91.036,1841.844 L108.172,1841.844 L108.172,1839.803 L101.164,1839.803 Q100.324,1839.803 99.616,1839.576 Q98.908,1839.348 98.38,1838.891 Q97.852,1838.436 97.564,1837.751 Q97.276,1837.068 97.276,1836.131 Q97.276,1834.955 97.948,1834.283 Q98.62,1833.611 99.772,1833.611 L108.172,1833.611 L108.172,1831.572 L100.012,1831.572 Q99.004,1831.572 98.176,1831.776 Q97.348,1831.979 96.748,1832.484 Q96.148,1832.988 95.812,1833.803 Q95.476,1834.62 95.476,1835.844 Q95.476,1836.396 95.596,1836.984 Q95.716,1837.572 95.968,1838.111 Q96.22,1838.651 96.616,1839.083 Q97.012,1839.516 97.588,1839.755 L97.588,1839.803 L91.036,1839.803 z M95.764,1825.667 L92.044,1825.667 L92.044,1827.708 L95.764,1827.708 L95.764,1829.819 L97.564,1829.819 L97.564,1827.708 L105.46,1827.708 Q106.324,1827.708 106.852,1827.54 Q107.38,1827.371 107.668,1827.024 Q107.956,1826.676 108.064,1826.111 Q108.172,1825.547 108.172,1824.755 L108.172,1823.196 L106.372,1823.196 L106.372,1824.131 Q106.372,1824.611 106.336,1824.911 Q106.3,1825.212 106.18,1825.38 Q106.06,1825.547 105.844,1825.608 Q105.628,1825.667 105.268,1825.667 L97.564,1825.667 L97.564,1823.196 L95.764,1823.196 z M95.764,1818.108 L92.044,1818.108 L92.044,1820.147 L95.764,1820.147 L95.764,1822.26 L97.564,1822.26 L97.564,1820.147 L105.46,1820.147 Q106.324,1820.147 106.852,1819.979 Q107.38,1819.812 107.668,1819.464 Q107.956,1819.115 108.064,1818.552 Q108.172,1817.988 108.172,1817.196 L108.172,1815.635 L106.372,1815.635 L106.372,1816.572 Q106.372,1817.052 106.336,1817.352 Q106.3,1817.651 106.18,1817.819 Q106.06,1817.988 105.844,1818.047 Q105.628,1818.108 105.268,1818.108 L97.564,1818.108 L97.564,1815.635 L95.764,1815.635 z M95.764,1813.307 L112.9,1813.307 L112.9,1811.267 L106.516,1811.267 L106.516,1811.219 Q107.068,1810.884 107.44,1810.391 Q107.812,1809.9 108.028,1809.348 Q108.244,1808.796 108.34,1808.231 Q108.436,1807.667 108.436,1807.212 Q108.436,1805.796 107.932,1804.728 Q107.428,1803.66 106.552,1802.952 Q105.676,1802.244 104.5,1801.896 Q103.324,1801.547 102.004,1801.547 Q100.684,1801.547 99.508,1801.907 Q98.332,1802.267 97.432,1802.975 Q96.532,1803.683 96.004,1804.751 Q95.476,1805.819 95.476,1807.26 Q95.476,1808.556 95.944,1809.635 Q96.412,1810.715 97.444,1811.219 L97.444,1811.267 L95.764,1811.267 z M101.86,1803.708 Q102.772,1803.708 103.636,1803.9 Q104.5,1804.092 105.172,1804.524 Q105.844,1804.955 106.252,1805.663 Q106.66,1806.371 106.66,1807.427 Q106.66,1808.484 106.264,1809.228 Q105.868,1809.972 105.22,1810.439 Q104.572,1810.907 103.72,1811.124 Q102.868,1811.339 101.956,1811.339 Q101.092,1811.339 100.252,1811.135 Q99.412,1810.932 98.752,1810.475 Q98.092,1810.02 97.684,1809.3 Q97.276,1808.579 97.276,1807.547 Q97.276,1806.563 97.66,1805.832 Q98.044,1805.099 98.692,1804.631 Q99.34,1804.163 100.168,1803.936 Q100.996,1803.708 101.86,1803.708 z M104.26,1797.9 L104.26,1799.939 Q105.412,1799.891 106.216,1799.459 Q107.02,1799.027 107.512,1798.307 Q108.004,1797.588 108.22,1796.651 Q108.436,1795.715 108.436,1794.683 Q108.436,1793.748 108.256,1792.8 Q108.076,1791.852 107.62,1791.095 Q107.164,1790.339 106.42,1789.871 Q105.676,1789.403 104.548,1789.403 Q103.66,1789.403 103.06,1789.751 Q102.46,1790.099 102.064,1790.663 Q101.668,1791.228 101.428,1791.959 Q101.188,1792.692 101.02,1793.459 Q100.852,1794.179 100.696,1794.9 Q100.54,1795.62 100.312,1796.196 Q100.084,1796.771 99.736,1797.144 Q99.388,1797.516 98.86,1797.516 Q98.38,1797.516 98.08,1797.276 Q97.78,1797.036 97.6,1796.651 Q97.42,1796.267 97.348,1795.8 Q97.276,1795.332 97.276,1794.875 Q97.276,1794.371 97.384,1793.88 Q97.492,1793.387 97.732,1792.979 Q97.972,1792.572 98.368,1792.307 Q98.764,1792.043 99.364,1791.995 L99.364,1789.955 Q98.236,1790.027 97.48,1790.436 Q96.724,1790.844 96.28,1791.527 Q95.836,1792.212 95.656,1793.099 Q95.476,1793.988 95.476,1795.043 Q95.476,1795.859 95.68,1796.688 Q95.884,1797.516 96.304,1798.176 Q96.724,1798.835 97.396,1799.255 Q98.068,1799.676 99.004,1799.676 Q100.204,1799.676 100.876,1799.076 Q101.548,1798.475 101.92,1797.576 Q102.292,1796.676 102.496,1795.62 Q102.7,1794.563 102.952,1793.663 Q103.204,1792.764 103.612,1792.163 Q104.02,1791.563 104.812,1791.563 Q105.388,1791.563 105.76,1791.852 Q106.132,1792.14 106.324,1792.583 Q106.516,1793.027 106.588,1793.556 Q106.66,1794.083 106.66,1794.563 Q106.66,1795.188 106.54,1795.776 Q106.42,1796.364 106.144,1796.832 Q105.868,1797.3 105.4,1797.588 Q104.932,1797.875 104.26,1797.9 z M98.428,1784.027 L95.764,1784.027 L95.764,1786.692 L98.428,1786.692 z M105.508,1786.692 L108.172,1786.692 L108.172,1784.027 L105.508,1784.027 z M90.628,1775.339 L108.556,1782.42 L108.556,1780.692 L90.628,1773.588 z M90.628,1767.348 L108.556,1774.427 L108.556,1772.699 L90.628,1765.595 z M93.532,1762.332 L91.036,1762.332 L91.036,1764.371 L93.532,1764.371 z M95.764,1764.371 L108.172,1764.371 L108.172,1762.332 L95.764,1762.332 z M95.764,1756.332 L92.044,1756.332 L92.044,1758.371 L95.764,1758.371 L95.764,1760.484 L97.564,1760.484 L97.564,1758.371 L105.46,1758.371 Q106.324,1758.371 106.852,1758.203 Q107.38,1758.036 107.668,1757.688 Q107.956,1757.339 108.064,1756.776 Q108.172,1756.212 108.172,1755.42 L108.172,1753.859 L106.372,1753.859 L106.372,1754.796 Q106.372,1755.276 106.336,1755.576 Q106.3,1755.875 106.18,1756.043 Q106.06,1756.212 105.844,1756.271 Q105.628,1756.332 105.268,1756.332 L97.564,1756.332 L97.564,1753.859 L95.764,1753.859 z M100.78,1742.988 L100.78,1750.115 Q100.06,1750.068 99.424,1749.803 Q98.788,1749.54 98.308,1749.083 Q97.828,1748.628 97.552,1747.991 Q97.276,1747.355 97.276,1746.563 Q97.276,1745.796 97.552,1745.16 Q97.828,1744.524 98.296,1744.056 Q98.764,1743.588 99.412,1743.312 Q100.06,1743.036 100.78,1742.988 z M104.236,1741.02 L104.236,1743.036 Q105.46,1743.3 106.06,1744.127 Q106.66,1744.955 106.66,1746.251 Q106.66,1747.26 106.324,1748.004 Q105.988,1748.748 105.424,1749.228 Q104.86,1749.708 104.128,1749.923 Q103.396,1750.14 102.58,1750.115 L102.58,1740.828 Q101.452,1740.78 100.204,1741.031 Q98.956,1741.283 97.9,1741.943 Q96.844,1742.604 96.16,1743.696 Q95.476,1744.787 95.476,1746.443 Q95.476,1747.715 95.956,1748.783 Q96.436,1749.852 97.3,1750.631 Q98.164,1751.411 99.34,1751.844 Q100.516,1752.276 101.932,1752.276 Q103.348,1752.228 104.548,1751.855 Q105.748,1751.484 106.612,1750.74 Q107.476,1749.995 107.956,1748.903 Q108.436,1747.812 108.436,1746.323 Q108.436,1744.212 107.38,1742.819 Q106.324,1741.427 104.236,1741.02 z M95.764,1738.715 L108.172,1738.715 L108.172,1736.676 L100.444,1736.676 Q100.084,1736.676 99.544,1736.495 Q99.004,1736.316 98.5,1735.92 Q97.996,1735.524 97.636,1734.887 Q97.276,1734.251 97.276,1733.364 Q97.276,1732.667 97.48,1732.224 Q97.684,1731.78 98.056,1731.516 Q98.428,1731.251 98.932,1731.144 Q99.436,1731.036 100.036,1731.036 L108.172,1731.036 L108.172,1728.995 L100.444,1728.995 Q99.004,1728.995 98.14,1728.131 Q97.276,1727.267 97.276,1725.755 Q97.276,1725.011 97.492,1724.543 Q97.708,1724.076 98.08,1723.812 Q98.452,1723.547 98.956,1723.452 Q99.46,1723.355 100.036,1723.355 L108.172,1723.355 L108.172,1721.316 L99.076,1721.316 Q98.116,1721.316 97.432,1721.615 Q96.748,1721.916 96.316,1722.455 Q95.884,1722.995 95.68,1723.751 Q95.476,1724.507 95.476,1725.443 Q95.476,1726.667 96.028,1727.688 Q96.58,1728.708 97.588,1729.332 Q96.436,1729.715 95.956,1730.651 Q95.476,1731.588 95.476,1732.74 Q95.476,1735.355 97.588,1736.748 L97.588,1736.796 L95.764,1736.796 z M108.124,1707.251 Q108.436,1707.78 108.436,1708.715 Q108.436,1709.507 107.992,1709.975 Q107.548,1710.443 106.54,1710.443 Q107.548,1711.283 107.992,1712.4 Q108.436,1713.516 108.436,1714.812 Q108.436,1715.651 108.244,1716.407 Q108.052,1717.163 107.644,1717.715 Q107.236,1718.267 106.576,1718.592 Q105.916,1718.916 104.98,1718.916 Q103.924,1718.916 103.252,1718.556 Q102.58,1718.196 102.16,1717.608 Q101.74,1717.02 101.524,1716.264 Q101.308,1715.507 101.164,1714.715 Q100.996,1713.875 100.912,1713.12 Q100.828,1712.364 100.672,1711.787 Q100.516,1711.212 100.216,1710.875 Q99.916,1710.54 99.34,1710.54 Q98.668,1710.54 98.26,1710.792 Q97.852,1711.043 97.636,1711.439 Q97.42,1711.835 97.348,1712.328 Q97.276,1712.819 97.276,1713.3 Q97.276,1714.595 97.768,1715.459 Q98.26,1716.323 99.628,1716.396 L99.628,1718.436 Q98.476,1718.387 97.684,1717.955 Q96.892,1717.524 96.4,1716.803 Q95.908,1716.083 95.692,1715.16 Q95.476,1714.235 95.476,1713.179 Q95.476,1712.339 95.596,1711.511 Q95.716,1710.683 96.088,1710.011 Q96.46,1709.339 97.132,1708.932 Q97.804,1708.524 98.884,1708.524 L105.268,1708.524 Q105.988,1708.524 106.324,1708.439 Q106.66,1708.355 106.66,1707.875 Q106.66,1707.611 106.54,1707.251 z M101.764,1710.563 Q102.052,1710.948 102.184,1711.572 Q102.316,1712.196 102.4,1712.88 Q102.484,1713.563 102.592,1714.26 Q102.7,1714.955 102.94,1715.507 Q103.18,1716.059 103.624,1716.407 Q104.068,1716.755 104.836,1716.755 Q105.34,1716.755 105.688,1716.552 Q106.036,1716.348 106.252,1716.024 Q106.468,1715.699 106.564,1715.267 Q106.66,1714.835 106.66,1714.355 Q106.66,1713.348 106.384,1712.627 Q106.108,1711.907 105.688,1711.452 Q105.268,1710.995 104.776,1710.78 Q104.284,1710.563 103.852,1710.563 z M105.508,1704.9 L108.172,1704.9 L108.172,1702.235 L105.508,1702.235 z M95.764,1698.683 L108.172,1698.683 L108.172,1696.644 L101.164,1696.644 Q100.324,1696.644 99.616,1696.416 Q98.908,1696.188 98.38,1695.731 Q97.852,1695.276 97.564,1694.592 Q97.276,1693.907 97.276,1692.972 Q97.276,1691.796 97.948,1691.124 Q98.62,1690.452 99.772,1690.452 L108.172,1690.452 L108.172,1688.411 L100.012,1688.411 Q99.004,1688.411 98.176,1688.615 Q97.348,1688.819 96.748,1689.323 Q96.148,1689.828 95.812,1690.644 Q95.476,1691.459 95.476,1692.683 Q95.476,1695.443 97.732,1696.715 L97.732,1696.764 L95.764,1696.764 z M101.98,1683.852 Q100.852,1683.852 99.976,1683.552 Q99.1,1683.251 98.5,1682.724 Q97.9,1682.196 97.588,1681.488 Q97.276,1680.78 97.276,1679.988 Q97.276,1679.196 97.588,1678.488 Q97.9,1677.78 98.5,1677.251 Q99.1,1676.724 99.976,1676.423 Q100.852,1676.124 101.98,1676.124 Q103.108,1676.124 103.984,1676.423 Q104.86,1676.724 105.448,1677.251 Q106.036,1677.78 106.348,1678.488 Q106.66,1679.196 106.66,1679.988 Q106.66,1680.78 106.348,1681.488 Q106.036,1682.196 105.448,1682.724 Q104.86,1683.251 103.984,1683.552 Q103.108,1683.852 101.98,1683.852 z M101.98,1686.011 Q103.348,1686.011 104.524,1685.627 Q105.7,1685.244 106.576,1684.475 Q107.452,1683.708 107.944,1682.579 Q108.436,1681.452 108.436,1679.988 Q108.436,1678.5 107.944,1677.384 Q107.452,1676.267 106.576,1675.5 Q105.7,1674.731 104.524,1674.348 Q103.348,1673.964 101.98,1673.964 Q100.612,1673.964 99.424,1674.348 Q98.236,1674.731 97.36,1675.5 Q96.484,1676.267 95.98,1677.384 Q95.476,1678.5 95.476,1679.988 Q95.476,1681.452 95.98,1682.579 Q96.484,1683.708 97.36,1684.475 Q98.236,1685.244 99.424,1685.628 Q100.612,1686.011 101.98,1686.011 z" fill="#515151"/>
    </g>
  </g>
  <g id="Statusfelter">
    <path d="M35,1490.667 L55,1490.667 L55,1510.667 L35,1510.667 L35,1490.667 z" fill-opacity="0" stroke="#515151" stroke-width="1"/>
    <g>
      <text transform="matrix(-0, -1, 1, -0, 47.637, 1328.417)">
        <tspan x="-129.917" y="8" font-family="HelveticaNeue" font-size="24" fill="#FFFFFF">Renskrives/arkiveres til:</tspan>
      </text>
      <path d="M38.501,1456.461 L55.637,1456.461 L55.637,1454.181 L48.317,1454.181 L48.317,1448.613 Q48.317,1447.773 48.569,1447.269 Q48.821,1446.765 49.241,1446.453 Q49.661,1446.141 50.225,1445.997 Q50.789,1445.853 51.413,1445.757 Q52.037,1445.637 52.685,1445.613 Q53.333,1445.589 53.897,1445.565 Q54.461,1445.541 54.917,1445.457 Q55.373,1445.373 55.637,1445.133 L55.637,1442.589 Q55.205,1442.949 54.641,1443.129 Q54.077,1443.309 53.453,1443.405 Q52.829,1443.501 52.181,1443.525 Q51.533,1443.549 50.909,1443.597 Q50.285,1443.669 49.709,1443.801 Q49.133,1443.933 48.665,1444.209 Q48.197,1444.485 47.861,1444.953 Q47.525,1445.421 47.381,1446.165 L47.333,1446.165 Q46.901,1444.605 45.725,1443.897 Q44.549,1443.189 42.989,1443.189 Q40.901,1443.189 39.701,1444.569 Q38.501,1445.949 38.501,1448.397 z M46.397,1449.429 L46.397,1454.181 L40.421,1454.181 L40.421,1448.517 Q40.421,1446.909 41.237,1446.189 Q42.053,1445.469 43.349,1445.469 Q44.285,1445.469 44.873,1445.793 Q45.461,1446.117 45.809,1446.657 Q46.157,1447.197 46.277,1447.917 Q46.397,1448.637 46.397,1449.429 z M48.245,1431.741 L48.245,1438.869 Q47.525,1438.821 46.889,1438.557 Q46.253,1438.293 45.773,1437.837 Q45.293,1437.381 45.017,1436.745 Q44.741,1436.109 44.741,1435.317 Q44.741,1434.549 45.017,1433.913 Q45.293,1433.277 45.761,1432.809 Q46.229,1432.341 46.877,1432.065 Q47.525,1431.789 48.245,1431.741 z M51.701,1429.773 L51.701,1431.789 Q52.925,1432.053 53.525,1432.881 Q54.125,1433.709 54.125,1435.005 Q54.125,1436.013 53.789,1436.757 Q53.453,1437.501 52.889,1437.981 Q52.325,1438.461 51.593,1438.677 Q50.861,1438.893 50.045,1438.869 L50.045,1429.581 Q48.917,1429.533 47.669,1429.785 Q46.421,1430.037 45.365,1430.697 Q44.309,1431.357 43.625,1432.449 Q42.941,1433.541 42.941,1435.197 Q42.941,1436.469 43.421,1437.537 Q43.901,1438.605 44.765,1439.385 Q45.629,1440.165 46.805,1440.597 Q47.981,1441.029 49.397,1441.029 Q50.813,1440.981 52.013,1440.609 Q53.213,1440.237 54.077,1439.493 Q54.941,1438.749 55.421,1437.657 Q55.901,1436.565 55.901,1435.077 Q55.901,1432.965 54.845,1431.573 Q53.789,1430.181 51.701,1429.773 z M43.229,1427.469 L55.637,1427.469 L55.637,1425.429 L48.629,1425.429 Q47.789,1425.429 47.081,1425.201 Q46.373,1424.973 45.845,1424.517 Q45.317,1424.061 45.029,1423.377 Q44.741,1422.693 44.741,1421.757 Q44.741,1420.581 45.413,1419.909 Q46.085,1419.237 47.237,1419.237 L55.637,1419.237 L55.637,1417.197 L47.477,1417.197 Q46.469,1417.197 45.641,1417.401 Q44.813,1417.605 44.213,1418.109 Q43.613,1418.613 43.277,1419.429 Q42.941,1420.245 42.941,1421.469 Q42.941,1424.229 45.197,1425.501 L45.197,1425.549 L43.229,1425.549 z M51.725,1412.877 L51.725,1414.917 Q52.877,1414.869 53.681,1414.437 Q54.485,1414.005 54.977,1413.285 Q55.469,1412.565 55.685,1411.629 Q55.901,1410.693 55.901,1409.661 Q55.901,1408.725 55.721,1407.777 Q55.541,1406.829 55.085,1406.073 Q54.629,1405.317 53.885,1404.849 Q53.141,1404.381 52.013,1404.381 Q51.125,1404.381 50.525,1404.729 Q49.925,1405.077 49.529,1405.641 Q49.133,1406.205 48.893,1406.937 Q48.653,1407.669 48.485,1408.437 Q48.317,1409.157 48.161,1409.877 Q48.005,1410.597 47.777,1411.173 Q47.549,1411.749 47.201,1412.121 Q46.853,1412.493 46.325,1412.493 Q45.845,1412.493 45.545,1412.253 Q45.245,1412.013 45.065,1411.629 Q44.885,1411.245 44.813,1410.777 Q44.741,1410.309 44.741,1409.853 Q44.741,1409.349 44.849,1408.857 Q44.957,1408.365 45.197,1407.957 Q45.437,1407.549 45.833,1407.285 Q46.229,1407.021 46.829,1406.973 L46.829,1404.933 Q45.701,1405.005 44.945,1405.413 Q44.189,1405.821 43.745,1406.505 Q43.301,1407.189 43.121,1408.077 Q42.941,1408.965 42.941,1410.021 Q42.941,1410.837 43.145,1411.665 Q43.349,1412.493 43.769,1413.153 Q44.189,1413.813 44.861,1414.233 Q45.533,1414.653 46.469,1414.653 Q47.669,1414.653 48.341,1414.053 Q49.013,1413.453 49.385,1412.553 Q49.757,1411.653 49.961,1410.597 Q50.165,1409.541 50.417,1408.641 Q50.669,1407.741 51.077,1407.141 Q51.485,1406.541 52.277,1406.541 Q52.853,1406.541 53.225,1406.829 Q53.597,1407.117 53.789,1407.561 Q53.981,1408.005 54.053,1408.533 Q54.125,1409.061 54.125,1409.541 Q54.125,1410.165 54.005,1410.753 Q53.885,1411.341 53.609,1411.809 Q53.333,1412.277 52.865,1412.565 Q52.397,1412.853 51.725,1412.877 z M38.501,1402.005 L55.637,1402.005 L55.637,1399.965 L50.933,1399.965 L49.157,1398.045 L55.637,1393.797 L55.637,1391.205 L47.741,1396.485 L43.229,1391.565 L43.229,1394.301 L48.653,1399.965 L38.501,1399.965 z M43.229,1389.741 L55.637,1389.741 L55.637,1387.701 L50.117,1387.701 Q48.917,1387.701 47.993,1387.461 Q47.069,1387.221 46.421,1386.693 Q45.773,1386.165 45.437,1385.301 Q45.101,1384.437 45.101,1383.213 L42.941,1383.213 Q42.893,1384.869 43.613,1385.949 Q44.333,1387.029 45.845,1387.773 L45.845,1387.821 L43.229,1387.821 z M40.997,1379.517 L38.501,1379.517 L38.501,1381.557 L40.997,1381.557 z M43.229,1381.557 L55.637,1381.557 L55.637,1379.517 L43.229,1379.517 z M55.637,1370.757 L43.229,1366.221 L43.229,1368.357 L53.573,1371.741 L53.573,1371.789 L43.229,1375.269 L43.229,1377.549 L55.637,1372.941 z M48.245,1355.733 L48.245,1362.861 Q47.525,1362.813 46.889,1362.549 Q46.253,1362.285 45.773,1361.829 Q45.293,1361.373 45.017,1360.737 Q44.741,1360.101 44.741,1359.309 Q44.741,1358.541 45.017,1357.905 Q45.293,1357.269 45.761,1356.801 Q46.229,1356.333 46.877,1356.057 Q47.525,1355.781 48.245,1355.733 z M51.701,1353.765 L51.701,1355.781 Q52.925,1356.045 53.525,1356.873 Q54.125,1357.701 54.125,1358.997 Q54.125,1360.005 53.789,1360.749 Q53.453,1361.493 52.889,1361.973 Q52.325,1362.453 51.593,1362.669 Q50.861,1362.885 50.045,1362.861 L50.045,1353.573 Q48.917,1353.525 47.669,1353.777 Q46.421,1354.029 45.365,1354.689 Q44.309,1355.349 43.625,1356.441 Q42.941,1357.533 42.941,1359.189 Q42.941,1360.461 43.421,1361.529 Q43.901,1362.597 44.765,1363.377 Q45.629,1364.157 46.805,1364.589 Q47.981,1365.021 49.397,1365.021 Q50.813,1364.973 52.013,1364.601 Q53.213,1364.229 54.077,1363.485 Q54.941,1362.741 55.421,1361.649 Q55.901,1360.557 55.901,1359.069 Q55.901,1356.957 54.845,1355.565 Q53.789,1354.173 51.701,1353.765 z M51.725,1350.213 L51.725,1352.253 Q52.877,1352.205 53.681,1351.773 Q54.485,1351.341 54.977,1350.621 Q55.469,1349.901 55.685,1348.965 Q55.901,1348.029 55.901,1346.997 Q55.901,1346.061 55.721,1345.113 Q55.541,1344.165 55.085,1343.409 Q54.629,1342.653 53.885,1342.185 Q53.141,1341.717 52.013,1341.717 Q51.125,1341.717 50.525,1342.065 Q49.925,1342.413 49.529,1342.977 Q49.133,1343.541 48.893,1344.273 Q48.653,1345.005 48.485,1345.773 Q48.317,1346.493 48.161,1347.213 Q48.005,1347.933 47.777,1348.509 Q47.549,1349.085 47.201,1349.457 Q46.853,1349.829 46.325,1349.829 Q45.845,1349.829 45.545,1349.589 Q45.245,1349.349 45.065,1348.965 Q44.885,1348.581 44.813,1348.113 Q44.741,1347.645 44.741,1347.189 Q44.741,1346.685 44.849,1346.193 Q44.957,1345.701 45.197,1345.293 Q45.437,1344.885 45.833,1344.621 Q46.229,1344.357 46.829,1344.309 L46.829,1342.269 Q45.701,1342.341 44.945,1342.749 Q44.189,1343.157 43.745,1343.841 Q43.301,1344.525 43.121,1345.413 Q42.941,1346.301 42.941,1347.357 Q42.941,1348.173 43.145,1349.001 Q43.349,1349.829 43.769,1350.489 Q44.189,1351.149 44.861,1351.569 Q45.533,1351.989 46.469,1351.989 Q47.669,1351.989 48.341,1351.389 Q49.013,1350.789 49.385,1349.889 Q49.757,1348.989 49.961,1347.933 Q50.165,1346.877 50.417,1345.977 Q50.669,1345.077 51.077,1344.477 Q51.485,1343.877 52.277,1343.877 Q52.853,1343.877 53.225,1344.165 Q53.597,1344.453 53.789,1344.897 Q53.981,1345.341 54.053,1345.869 Q54.125,1346.397 54.125,1346.877 Q54.125,1347.501 54.005,1348.089 Q53.885,1348.677 53.609,1349.145 Q53.333,1349.613 52.865,1349.901 Q52.397,1350.189 51.725,1350.213 z M38.093,1334.325 L56.021,1341.405 L56.021,1339.677 L38.093,1332.573 z M55.589,1320.477 Q55.901,1321.005 55.901,1321.941 Q55.901,1322.733 55.457,1323.201 Q55.013,1323.669 54.005,1323.669 Q55.013,1324.509 55.457,1325.625 Q55.901,1326.741 55.901,1328.037 Q55.901,1328.877 55.709,1329.633 Q55.517,1330.389 55.109,1330.941 Q54.701,1331.493 54.041,1331.817 Q53.381,1332.141 52.445,1332.141 Q51.389,1332.141 50.717,1331.781 Q50.045,1331.421 49.625,1330.833 Q49.205,1330.245 48.989,1329.489 Q48.773,1328.733 48.629,1327.941 Q48.461,1327.101 48.377,1326.345 Q48.293,1325.589 48.137,1325.013 Q47.981,1324.437 47.681,1324.101 Q47.381,1323.765 46.805,1323.765 Q46.133,1323.765 45.725,1324.017 Q45.317,1324.269 45.101,1324.665 Q44.885,1325.061 44.813,1325.553 Q44.741,1326.045 44.741,1326.525 Q44.741,1327.821 45.233,1328.685 Q45.725,1329.549 47.093,1329.621 L47.093,1331.661 Q45.941,1331.613 45.149,1331.181 Q44.357,1330.749 43.865,1330.029 Q43.373,1329.309 43.157,1328.385 Q42.941,1327.461 42.941,1326.405 Q42.941,1325.565 43.061,1324.737 Q43.181,1323.909 43.553,1323.237 Q43.925,1322.565 44.597,1322.157 Q45.269,1321.749 46.349,1321.749 L52.733,1321.749 Q53.453,1321.749 53.789,1321.665 Q54.125,1321.581 54.125,1321.101 Q54.125,1320.837 54.005,1320.477 z M49.229,1323.789 Q49.517,1324.173 49.649,1324.797 Q49.781,1325.421 49.865,1326.105 Q49.949,1326.789 50.057,1327.485 Q50.165,1328.181 50.405,1328.733 Q50.645,1329.285 51.089,1329.633 Q51.533,1329.981 52.301,1329.981 Q52.805,1329.981 53.153,1329.777 Q53.501,1329.573 53.717,1329.249 Q53.933,1328.925 54.029,1328.493 Q54.125,1328.061 54.125,1327.581 Q54.125,1326.573 53.849,1325.853 Q53.573,1325.133 53.153,1324.677 Q52.733,1324.221 52.241,1324.005 Q51.749,1323.789 51.317,1323.789 z M43.229,1318.653 L55.637,1318.653 L55.637,1316.613 L50.117,1316.613 Q48.917,1316.613 47.993,1316.373 Q47.069,1316.133 46.421,1315.605 Q45.773,1315.077 45.437,1314.213 Q45.101,1313.349 45.101,1312.125 L42.941,1312.125 Q42.893,1313.781 43.613,1314.861 Q44.333,1315.941 45.845,1316.685 L45.845,1316.733 L43.229,1316.733 z M38.501,1310.469 L55.637,1310.469 L55.637,1308.429 L50.933,1308.429 L49.157,1306.509 L55.637,1302.261 L55.637,1299.669 L47.741,1304.949 L43.229,1300.029 L43.229,1302.765 L48.653,1308.429 L38.501,1308.429 z M40.997,1295.973 L38.501,1295.973 L38.501,1298.013 L40.997,1298.013 z M43.229,1298.013 L55.637,1298.013 L55.637,1295.973 L43.229,1295.973 z M55.637,1287.213 L43.229,1282.677 L43.229,1284.813 L53.573,1288.197 L53.573,1288.245 L43.229,1291.725 L43.229,1294.005 L55.637,1289.397 z M48.245,1272.189 L48.245,1279.317 Q47.525,1279.269 46.889,1279.005 Q46.253,1278.741 45.773,1278.285 Q45.293,1277.829 45.017,1277.193 Q44.741,1276.557 44.741,1275.765 Q44.741,1274.997 45.017,1274.361 Q45.293,1273.725 45.761,1273.257 Q46.229,1272.789 46.877,1272.513 Q47.525,1272.237 48.245,1272.189 z M51.701,1270.221 L51.701,1272.237 Q52.925,1272.501 53.525,1273.329 Q54.125,1274.157 54.125,1275.453 Q54.125,1276.461 53.789,1277.205 Q53.453,1277.949 52.889,1278.429 Q52.325,1278.909 51.593,1279.125 Q50.861,1279.341 50.045,1279.317 L50.045,1270.029 Q48.917,1269.981 47.669,1270.233 Q46.421,1270.485 45.365,1271.145 Q44.309,1271.805 43.625,1272.897 Q42.941,1273.989 42.941,1275.645 Q42.941,1276.917 43.421,1277.985 Q43.901,1279.053 44.765,1279.833 Q45.629,1280.613 46.805,1281.045 Q47.981,1281.477 49.397,1281.477 Q50.813,1281.429 52.013,1281.057 Q53.213,1280.685 54.077,1279.941 Q54.941,1279.197 55.421,1278.105 Q55.901,1277.013 55.901,1275.525 Q55.901,1273.413 54.845,1272.021 Q53.789,1270.629 51.701,1270.221 z M43.229,1267.989 L55.637,1267.989 L55.637,1265.949 L50.117,1265.949 Q48.917,1265.949 47.993,1265.709 Q47.069,1265.469 46.421,1264.941 Q45.773,1264.413 45.437,1263.549 Q45.101,1262.685 45.101,1261.461 L42.941,1261.461 Q42.893,1263.117 43.613,1264.197 Q44.333,1265.277 45.845,1266.021 L45.845,1266.069 L43.229,1266.069 z M48.245,1251.741 L48.245,1258.869 Q47.525,1258.821 46.889,1258.557 Q46.253,1258.293 45.773,1257.837 Q45.293,1257.381 45.017,1256.745 Q44.741,1256.109 44.741,1255.317 Q44.741,1254.549 45.017,1253.913 Q45.293,1253.277 45.761,1252.809 Q46.229,1252.341 46.877,1252.065 Q47.525,1251.789 48.245,1251.741 z M51.701,1249.773 L51.701,1251.789 Q52.925,1252.053 53.525,1252.881 Q54.125,1253.709 54.125,1255.005 Q54.125,1256.013 53.789,1256.757 Q53.453,1257.501 52.889,1257.981 Q52.325,1258.461 51.593,1258.677 Q50.861,1258.893 50.045,1258.869 L50.045,1249.581 Q48.917,1249.533 47.669,1249.785 Q46.421,1250.037 45.365,1250.697 Q44.309,1251.357 43.625,1252.449 Q42.941,1253.541 42.941,1255.197 Q42.941,1256.469 43.421,1257.537 Q43.901,1258.605 44.765,1259.385 Q45.629,1260.165 46.805,1260.597 Q47.981,1261.029 49.397,1261.029 Q50.813,1260.981 52.013,1260.609 Q53.213,1260.237 54.077,1259.493 Q54.941,1258.749 55.421,1257.657 Q55.901,1256.565 55.901,1255.077 Q55.901,1252.965 54.845,1251.573 Q53.789,1250.181 51.701,1249.773 z M51.725,1246.221 L51.725,1248.261 Q52.877,1248.213 53.681,1247.781 Q54.485,1247.349 54.977,1246.629 Q55.469,1245.909 55.685,1244.973 Q55.901,1244.037 55.901,1243.005 Q55.901,1242.069 55.721,1241.121 Q55.541,1240.173 55.085,1239.417 Q54.629,1238.661 53.885,1238.193 Q53.141,1237.725 52.013,1237.725 Q51.125,1237.725 50.525,1238.073 Q49.925,1238.421 49.529,1238.985 Q49.133,1239.549 48.893,1240.281 Q48.653,1241.013 48.485,1241.781 Q48.317,1242.501 48.161,1243.221 Q48.005,1243.941 47.777,1244.517 Q47.549,1245.093 47.201,1245.465 Q46.853,1245.837 46.325,1245.837 Q45.845,1245.837 45.545,1245.597 Q45.245,1245.357 45.065,1244.973 Q44.885,1244.589 44.813,1244.121 Q44.741,1243.653 44.741,1243.197 Q44.741,1242.693 44.849,1242.201 Q44.957,1241.709 45.197,1241.301 Q45.437,1240.893 45.833,1240.629 Q46.229,1240.365 46.829,1240.317 L46.829,1238.277 Q45.701,1238.349 44.945,1238.757 Q44.189,1239.165 43.745,1239.849 Q43.301,1240.533 43.121,1241.421 Q42.941,1242.309 42.941,1243.365 Q42.941,1244.181 43.145,1245.009 Q43.349,1245.837 43.769,1246.497 Q44.189,1247.157 44.861,1247.577 Q45.533,1247.997 46.469,1247.997 Q47.669,1247.997 48.341,1247.397 Q49.013,1246.797 49.385,1245.897 Q49.757,1244.997 49.961,1243.941 Q50.165,1242.885 50.417,1241.985 Q50.669,1241.085 51.077,1240.485 Q51.485,1239.885 52.277,1239.885 Q52.853,1239.885 53.225,1240.173 Q53.597,1240.461 53.789,1240.905 Q53.981,1241.349 54.053,1241.877 Q54.125,1242.405 54.125,1242.885 Q54.125,1243.509 54.005,1244.097 Q53.885,1244.685 53.609,1245.153 Q53.333,1245.621 52.865,1245.909 Q52.397,1246.197 51.725,1246.221 z M43.229,1225.965 L39.509,1225.965 L39.509,1228.005 L43.229,1228.005 L43.229,1230.117 L45.029,1230.117 L45.029,1228.005 L52.925,1228.005 Q53.789,1228.005 54.317,1227.837 Q54.845,1227.669 55.133,1227.321 Q55.421,1226.973 55.529,1226.409 Q55.637,1225.845 55.637,1225.053 L55.637,1223.493 L53.837,1223.493 L53.837,1224.429 Q53.837,1224.909 53.801,1225.209 Q53.765,1225.509 53.645,1225.677 Q53.525,1225.845 53.309,1225.905 Q53.093,1225.965 52.733,1225.965 L45.029,1225.965 L45.029,1223.493 L43.229,1223.493 z M40.997,1219.077 L38.501,1219.077 L38.501,1221.117 L40.997,1221.117 z M43.229,1221.117 L55.637,1221.117 L55.637,1219.077 L43.229,1219.077 z M38.501,1215.789 L55.637,1215.789 L55.637,1213.749 L38.501,1213.749 z M45.893,1207.461 L43.229,1207.461 L43.229,1210.125 L45.893,1210.125 z M52.973,1210.125 L55.637,1210.125 L55.637,1207.461 L52.973,1207.461 z" fill="#515151"/>
    </g>
    <g>
      <text transform="matrix(-0, -1, 1, -0, 116.672, 1377.417)">
        <tspan x="-80.917" y="-6.5" font-family="HelveticaNeue" font-size="24" fill="#FFFFFF">Distribueres til:</tspan>
      </text>
      <path d="M108.252,1454.181 L94.956,1454.181 L94.956,1450.341 Q94.956,1448.757 95.4,1447.677 Q95.844,1446.597 96.696,1445.913 Q97.548,1445.229 98.76,1444.929 Q99.972,1444.629 101.508,1444.629 Q103.092,1444.629 104.208,1444.953 Q105.324,1445.277 106.068,1445.781 Q106.812,1446.285 107.244,1446.921 Q107.676,1447.557 107.904,1448.205 Q108.132,1448.853 108.192,1449.429 Q108.252,1450.005 108.252,1450.389 z M93.036,1456.461 L110.172,1456.461 L110.172,1450.581 Q110.172,1448.445 109.572,1446.885 Q108.972,1445.325 107.832,1444.317 Q106.692,1443.309 105.024,1442.829 Q103.356,1442.349 101.196,1442.349 Q97.068,1442.349 95.052,1444.485 Q93.036,1446.621 93.036,1450.581 z M95.532,1437.741 L93.036,1437.741 L93.036,1439.781 L95.532,1439.781 z M97.764,1439.781 L110.172,1439.781 L110.172,1437.741 L97.764,1437.741 z M106.26,1433.325 L106.26,1435.365 Q107.412,1435.317 108.216,1434.885 Q109.02,1434.453 109.512,1433.733 Q110.004,1433.013 110.22,1432.077 Q110.436,1431.141 110.436,1430.109 Q110.436,1429.173 110.256,1428.225 Q110.076,1427.277 109.62,1426.521 Q109.164,1425.765 108.42,1425.297 Q107.676,1424.829 106.548,1424.829 Q105.66,1424.829 105.06,1425.177 Q104.46,1425.525 104.064,1426.089 Q103.668,1426.653 103.428,1427.385 Q103.188,1428.117 103.02,1428.885 Q102.852,1429.605 102.696,1430.325 Q102.54,1431.045 102.312,1431.621 Q102.084,1432.197 101.736,1432.569 Q101.388,1432.941 100.86,1432.941 Q100.38,1432.941 100.08,1432.701 Q99.78,1432.461 99.6,1432.077 Q99.42,1431.693 99.348,1431.225 Q99.276,1430.757 99.276,1430.301 Q99.276,1429.797 99.384,1429.305 Q99.492,1428.813 99.732,1428.405 Q99.972,1427.997 100.368,1427.733 Q100.764,1427.469 101.364,1427.421 L101.364,1425.381 Q100.236,1425.453 99.48,1425.861 Q98.724,1426.269 98.28,1426.953 Q97.836,1427.637 97.656,1428.525 Q97.476,1429.413 97.476,1430.469 Q97.476,1431.285 97.68,1432.113 Q97.884,1432.941 98.304,1433.601 Q98.724,1434.261 99.396,1434.681 Q100.068,1435.101 101.004,1435.101 Q102.204,1435.101 102.876,1434.501 Q103.548,1433.901 103.92,1433.001 Q104.292,1432.101 104.496,1431.045 Q104.7,1429.989 104.952,1429.089 Q105.204,1428.189 105.612,1427.589 Q106.02,1426.989 106.812,1426.989 Q107.388,1426.989 107.76,1427.277 Q108.132,1427.565 108.324,1428.009 Q108.516,1428.453 108.588,1428.981 Q108.66,1429.509 108.66,1429.989 Q108.66,1430.613 108.54,1431.201 Q108.42,1431.789 108.144,1432.257 Q107.868,1432.725 107.4,1433.013 Q106.932,1433.301 106.26,1433.325 z M97.764,1419.741 L94.044,1419.741 L94.044,1421.781 L97.764,1421.781 L97.764,1423.893 L99.564,1423.893 L99.564,1421.781 L107.46,1421.781 Q108.324,1421.781 108.852,1421.613 Q109.38,1421.445 109.668,1421.097 Q109.956,1420.749 110.064,1420.185 Q110.172,1419.621 110.172,1418.829 L110.172,1417.269 L108.372,1417.269 L108.372,1418.205 Q108.372,1418.685 108.336,1418.985 Q108.3,1419.285 108.18,1419.453 Q108.06,1419.621 107.844,1419.681 Q107.628,1419.741 107.268,1419.741 L99.564,1419.741 L99.564,1417.269 L97.764,1417.269 z M97.764,1415.085 L110.172,1415.085 L110.172,1413.045 L104.652,1413.045 Q103.452,1413.045 102.528,1412.805 Q101.604,1412.565 100.956,1412.037 Q100.308,1411.509 99.972,1410.645 Q99.636,1409.781 99.636,1408.557 L97.476,1408.557 Q97.428,1410.213 98.148,1411.293 Q98.868,1412.373 100.38,1413.117 L100.38,1413.165 L97.764,1413.165 z M95.532,1404.861 L93.036,1404.861 L93.036,1406.901 L95.532,1406.901 z M97.764,1406.901 L110.172,1406.901 L110.172,1404.861 L97.764,1404.861 z M93.036,1401.621 L110.172,1401.621 L110.172,1399.581 L108.516,1399.581 L108.516,1399.533 Q109.068,1399.197 109.44,1398.705 Q109.812,1398.213 110.028,1397.661 Q110.244,1397.109 110.34,1396.545 Q110.436,1395.981 110.436,1395.525 Q110.436,1394.109 109.932,1393.041 Q109.428,1391.973 108.552,1391.265 Q107.676,1390.557 106.5,1390.209 Q105.324,1389.861 104.004,1389.861 Q102.684,1389.861 101.508,1390.221 Q100.332,1390.581 99.432,1391.289 Q98.532,1391.997 98.004,1393.065 Q97.476,1394.133 97.476,1395.573 Q97.476,1396.869 97.944,1397.949 Q98.412,1399.029 99.444,1399.533 L99.444,1399.581 L93.036,1399.581 z M103.86,1392.021 Q104.772,1392.021 105.636,1392.213 Q106.5,1392.405 107.172,1392.837 Q107.844,1393.269 108.252,1393.977 Q108.66,1394.685 108.66,1395.741 Q108.66,1396.797 108.264,1397.541 Q107.868,1398.285 107.22,1398.753 Q106.572,1399.221 105.72,1399.437 Q104.868,1399.653 103.956,1399.653 Q103.092,1399.653 102.252,1399.449 Q101.412,1399.245 100.752,1398.789 Q100.092,1398.333 99.684,1397.613 Q99.276,1396.893 99.276,1395.861 Q99.276,1394.877 99.66,1394.145 Q100.044,1393.413 100.692,1392.945 Q101.34,1392.477 102.168,1392.249 Q102.996,1392.021 103.86,1392.021 z M110.172,1377.189 L97.764,1377.189 L97.764,1379.229 L104.772,1379.229 Q105.612,1379.229 106.32,1379.457 Q107.028,1379.685 107.556,1380.141 Q108.084,1380.597 108.372,1381.281 Q108.66,1381.965 108.66,1382.901 Q108.66,1384.077 107.988,1384.749 Q107.316,1385.421 106.164,1385.421 L97.764,1385.421 L97.764,1387.461 L105.924,1387.461 Q106.932,1387.461 107.76,1387.257 Q108.588,1387.053 109.188,1386.549 Q109.788,1386.045 110.112,1385.229 Q110.436,1384.413 110.436,1383.189 Q110.436,1381.821 109.896,1380.813 Q109.356,1379.805 108.204,1379.157 L108.204,1379.109 L110.172,1379.109 z M102.78,1365.501 L102.78,1372.629 Q102.06,1372.581 101.424,1372.317 Q100.788,1372.053 100.308,1371.597 Q99.828,1371.141 99.552,1370.505 Q99.276,1369.869 99.276,1369.077 Q99.276,1368.309 99.552,1367.673 Q99.828,1367.037 100.296,1366.569 Q100.764,1366.101 101.412,1365.825 Q102.06,1365.549 102.78,1365.501 z M106.236,1363.533 L106.236,1365.549 Q107.46,1365.813 108.06,1366.641 Q108.66,1367.469 108.66,1368.765 Q108.66,1369.773 108.324,1370.517 Q107.988,1371.261 107.424,1371.741 Q106.86,1372.221 106.128,1372.437 Q105.396,1372.653 104.58,1372.629 L104.58,1363.341 Q103.452,1363.293 102.204,1363.545 Q100.956,1363.797 99.9,1364.457 Q98.844,1365.117 98.16,1366.209 Q97.476,1367.301 97.476,1368.957 Q97.476,1370.229 97.956,1371.297 Q98.436,1372.365 99.3,1373.145 Q100.164,1373.925 101.34,1374.357 Q102.516,1374.789 103.932,1374.789 Q105.348,1374.741 106.548,1374.369 Q107.748,1373.997 108.612,1373.253 Q109.476,1372.509 109.956,1371.417 Q110.436,1370.325 110.436,1368.837 Q110.436,1366.725 109.38,1365.333 Q108.324,1363.941 106.236,1363.533 z M97.764,1361.301 L110.172,1361.301 L110.172,1359.261 L104.652,1359.261 Q103.452,1359.261 102.528,1359.021 Q101.604,1358.781 100.956,1358.253 Q100.308,1357.725 99.972,1356.861 Q99.636,1355.997 99.636,1354.773 L97.476,1354.773 Q97.428,1356.429 98.148,1357.509 Q98.868,1358.589 100.38,1359.333 L100.38,1359.381 L97.764,1359.381 z M102.78,1345.053 L102.78,1352.181 Q102.06,1352.133 101.424,1351.869 Q100.788,1351.605 100.308,1351.149 Q99.828,1350.693 99.552,1350.057 Q99.276,1349.421 99.276,1348.629 Q99.276,1347.861 99.552,1347.225 Q99.828,1346.589 100.296,1346.121 Q100.764,1345.653 101.412,1345.377 Q102.06,1345.101 102.78,1345.053 z M106.236,1343.085 L106.236,1345.101 Q107.46,1345.365 108.06,1346.193 Q108.66,1347.021 108.66,1348.317 Q108.66,1349.325 108.324,1350.069 Q107.988,1350.813 107.424,1351.293 Q106.86,1351.773 106.128,1351.989 Q105.396,1352.205 104.58,1352.181 L104.58,1342.893 Q103.452,1342.845 102.204,1343.097 Q100.956,1343.349 99.9,1344.009 Q98.844,1344.669 98.16,1345.761 Q97.476,1346.853 97.476,1348.509 Q97.476,1349.781 97.956,1350.849 Q98.436,1351.917 99.3,1352.697 Q100.164,1353.477 101.34,1353.909 Q102.516,1354.341 103.932,1354.341 Q105.348,1354.293 106.548,1353.921 Q107.748,1353.549 108.612,1352.805 Q109.476,1352.061 109.956,1350.969 Q110.436,1349.877 110.436,1348.389 Q110.436,1346.277 109.38,1344.885 Q108.324,1343.493 106.236,1343.085 z M106.26,1339.533 L106.26,1341.573 Q107.412,1341.525 108.216,1341.093 Q109.02,1340.661 109.512,1339.941 Q110.004,1339.221 110.22,1338.285 Q110.436,1337.349 110.436,1336.317 Q110.436,1335.381 110.256,1334.433 Q110.076,1333.485 109.62,1332.729 Q109.164,1331.973 108.42,1331.505 Q107.676,1331.037 106.548,1331.037 Q105.66,1331.037 105.06,1331.385 Q104.46,1331.733 104.064,1332.297 Q103.668,1332.861 103.428,1333.593 Q103.188,1334.325 103.02,1335.093 Q102.852,1335.813 102.696,1336.533 Q102.54,1337.253 102.312,1337.829 Q102.084,1338.405 101.736,1338.777 Q101.388,1339.149 100.86,1339.149 Q100.38,1339.149 100.08,1338.909 Q99.78,1338.669 99.6,1338.285 Q99.42,1337.901 99.348,1337.433 Q99.276,1336.965 99.276,1336.509 Q99.276,1336.005 99.384,1335.513 Q99.492,1335.021 99.732,1334.613 Q99.972,1334.205 100.368,1333.941 Q100.764,1333.677 101.364,1333.629 L101.364,1331.589 Q100.236,1331.661 99.48,1332.069 Q98.724,1332.477 98.28,1333.161 Q97.836,1333.845 97.656,1334.733 Q97.476,1335.621 97.476,1336.677 Q97.476,1337.493 97.68,1338.321 Q97.884,1339.149 98.304,1339.809 Q98.724,1340.469 99.396,1340.889 Q100.068,1341.309 101.004,1341.309 Q102.204,1341.309 102.876,1340.709 Q103.548,1340.109 103.92,1339.209 Q104.292,1338.309 104.496,1337.253 Q104.7,1336.197 104.952,1335.297 Q105.204,1334.397 105.612,1333.797 Q106.02,1333.197 106.812,1333.197 Q107.388,1333.197 107.76,1333.485 Q108.132,1333.773 108.324,1334.217 Q108.516,1334.661 108.588,1335.189 Q108.66,1335.717 108.66,1336.197 Q108.66,1336.821 108.54,1337.409 Q108.42,1337.997 108.144,1338.465 Q107.868,1338.933 107.4,1339.221 Q106.932,1339.509 106.26,1339.533 z M97.764,1319.277 L94.044,1319.277 L94.044,1321.317 L97.764,1321.317 L97.764,1323.429 L99.564,1323.429 L99.564,1321.317 L107.46,1321.317 Q108.324,1321.317 108.852,1321.149 Q109.38,1320.981 109.668,1320.633 Q109.956,1320.285 110.064,1319.721 Q110.172,1319.157 110.172,1318.365 L110.172,1316.805 L108.372,1316.805 L108.372,1317.741 Q108.372,1318.221 108.336,1318.521 Q108.3,1318.821 108.18,1318.989 Q108.06,1319.157 107.844,1319.217 Q107.628,1319.277 107.268,1319.277 L99.564,1319.277 L99.564,1316.805 L97.764,1316.805 z M95.532,1312.389 L93.036,1312.389 L93.036,1314.429 L95.532,1314.429 z M97.764,1314.429 L110.172,1314.429 L110.172,1312.389 L97.764,1312.389 z M93.036,1309.101 L110.172,1309.101 L110.172,1307.061 L93.036,1307.061 z M100.428,1300.773 L97.764,1300.773 L97.764,1303.437 L100.428,1303.437 z M107.508,1303.437 L110.172,1303.437 L110.172,1300.773 L107.508,1300.773 z" fill="#515151"/>
    </g>
    <path d="M90.172,1490.667 L110.172,1490.667 L110.172,1510.667 L90.172,1510.667 L90.172,1490.667 z" fill-opacity="0" stroke="#515151" stroke-width="1"/>
    <path d="M110.172,1296.5 L110.01,885.5" fill-opacity="0" stroke="#515151" stroke-width="1"/>
    <path d="M55,1198.5 L55.637,885.5" fill-opacity="0" stroke="#515151" stroke-width="1"/>
    <g>
      <text transform="matrix(-0, -1, 1, -0, 48.167, 704.083)">
        <tspan x="-77.917" y="6.5" font-family="HelveticaNeue" font-size="24" fill="#FFFFFF">Timeføres:</tspan>
      </text>
      <path d="M39.451,776.24 L54.667,776.24 L54.667,773.96 L39.451,773.96 L39.451,768.248 L37.531,768.248 L37.531,781.952 L39.451,781.952 z M40.027,764.528 L37.531,764.528 L37.531,766.568 L40.027,766.568 z M42.259,766.568 L54.667,766.568 L54.667,764.528 L42.259,764.528 z M42.259,761.36 L54.667,761.36 L54.667,759.32 L46.939,759.32 Q46.579,759.32 46.039,759.14 Q45.499,758.96 44.995,758.564 Q44.491,758.168 44.131,757.532 Q43.771,756.896 43.771,756.008 Q43.771,755.312 43.975,754.868 Q44.179,754.424 44.551,754.16 Q44.923,753.896 45.427,753.788 Q45.931,753.68 46.531,753.68 L54.667,753.68 L54.667,751.64 L46.939,751.64 Q45.499,751.64 44.635,750.776 Q43.771,749.912 43.771,748.4 Q43.771,747.656 43.987,747.188 Q44.203,746.72 44.575,746.456 Q44.947,746.192 45.451,746.096 Q45.955,746 46.531,746 L54.667,746 L54.667,743.96 L45.571,743.96 Q44.611,743.96 43.927,744.26 Q43.243,744.56 42.811,745.1 Q42.379,745.64 42.175,746.396 Q41.971,747.152 41.971,748.088 Q41.971,749.312 42.523,750.332 Q43.075,751.352 44.083,751.976 Q42.931,752.36 42.451,753.296 Q41.971,754.232 41.971,755.384 Q41.971,758 44.083,759.392 L44.083,759.44 L42.259,759.44 z M47.275,732.272 L47.275,739.4 Q46.555,739.352 45.919,739.088 Q45.283,738.824 44.803,738.368 Q44.323,737.912 44.047,737.276 Q43.771,736.64 43.771,735.848 Q43.771,735.08 44.047,734.444 Q44.323,733.808 44.791,733.34 Q45.259,732.872 45.907,732.596 Q46.555,732.32 47.275,732.272 z M50.731,730.304 L50.731,732.32 Q51.955,732.584 52.555,733.412 Q53.155,734.24 53.155,735.536 Q53.155,736.544 52.819,737.288 Q52.483,738.032 51.919,738.512 Q51.355,738.992 50.623,739.208 Q49.891,739.424 49.075,739.4 L49.075,730.112 Q47.947,730.064 46.699,730.316 Q45.451,730.568 44.395,731.228 Q43.339,731.888 42.655,732.98 Q41.971,734.072 41.971,735.728 Q41.971,737 42.451,738.068 Q42.931,739.136 43.795,739.916 Q44.659,740.696 45.835,741.128 Q47.011,741.56 48.427,741.56 Q49.843,741.512 51.043,741.14 Q52.243,740.768 53.107,740.024 Q53.971,739.28 54.451,738.188 Q54.931,737.096 54.931,735.608 Q54.931,733.496 53.875,732.104 Q52.819,730.712 50.731,730.304 z M44.059,727.16 L54.667,727.16 L54.667,725.12 L44.059,725.12 L44.059,722.72 L42.259,722.72 L42.259,725.12 L40.531,725.12 Q39.715,725.12 39.427,724.712 Q39.139,724.304 39.139,723.56 Q39.139,723.296 39.175,722.984 Q39.211,722.672 39.307,722.408 L37.531,722.408 Q37.435,722.696 37.387,723.068 Q37.339,723.44 37.339,723.728 Q37.339,725.408 38.119,726.284 Q38.899,727.16 40.411,727.16 L42.259,727.16 L42.259,729.248 L44.059,729.248 z M44.035,710.912 L42.451,709.472 L41.827,710.12 L43.387,711.512 Q42.691,712.28 42.331,713.264 Q41.971,714.248 41.971,715.544 Q41.971,717.008 42.475,718.136 Q42.979,719.264 43.855,720.032 Q44.731,720.8 45.919,721.184 Q47.107,721.568 48.475,721.568 Q49.795,721.568 50.935,721.208 Q52.075,720.848 52.963,720.128 L54.619,721.616 L55.171,720.944 L53.587,719.504 Q54.235,718.76 54.583,717.776 Q54.931,716.792 54.931,715.544 Q54.931,714.056 54.439,712.94 Q53.947,711.824 53.071,711.056 Q52.195,710.288 51.019,709.904 Q49.843,709.52 48.475,709.52 Q47.155,709.52 46.015,709.868 Q44.875,710.216 44.035,710.912 z M52.075,718.16 L45.619,712.352 Q46.171,712.04 46.879,711.86 Q47.587,711.68 48.475,711.68 Q49.603,711.68 50.479,711.98 Q51.355,712.28 51.943,712.808 Q52.531,713.336 52.843,714.044 Q53.155,714.752 53.155,715.544 Q53.155,717.08 52.075,718.16 z M44.899,712.88 L51.379,718.688 Q50.779,719.024 50.059,719.216 Q49.339,719.408 48.475,719.408 Q47.347,719.408 46.471,719.108 Q45.595,718.808 44.995,718.28 Q44.395,717.752 44.083,717.044 Q43.771,716.336 43.771,715.544 Q43.771,713.936 44.899,712.88 z M42.259,707.192 L54.667,707.192 L54.667,705.152 L49.147,705.152 Q47.947,705.152 47.023,704.912 Q46.099,704.672 45.451,704.144 Q44.803,703.616 44.467,702.752 Q44.131,701.888 44.131,700.664 L41.971,700.664 Q41.923,702.32 42.643,703.4 Q43.363,704.48 44.875,705.224 L44.875,705.272 L42.259,705.272 z M47.275,690.944 L47.275,698.072 Q46.555,698.024 45.919,697.76 Q45.283,697.496 44.803,697.04 Q44.323,696.584 44.047,695.948 Q43.771,695.312 43.771,694.52 Q43.771,693.752 44.047,693.116 Q44.323,692.48 44.791,692.012 Q45.259,691.544 45.907,691.268 Q46.555,690.992 47.275,690.944 z M50.731,688.976 L50.731,690.992 Q51.955,691.256 52.555,692.084 Q53.155,692.912 53.155,694.208 Q53.155,695.216 52.819,695.96 Q52.483,696.704 51.919,697.184 Q51.355,697.664 50.623,697.88 Q49.891,698.096 49.075,698.072 L49.075,688.784 Q47.947,688.736 46.699,688.988 Q45.451,689.24 44.395,689.9 Q43.339,690.56 42.655,691.652 Q41.971,692.744 41.971,694.4 Q41.971,695.672 42.451,696.74 Q42.931,697.808 43.795,698.588 Q44.659,699.368 45.835,699.8 Q47.011,700.232 48.427,700.232 Q49.843,700.184 51.043,699.812 Q52.243,699.44 53.107,698.696 Q53.971,697.952 54.451,696.86 Q54.931,695.768 54.931,694.28 Q54.931,692.168 53.875,690.776 Q52.819,689.384 50.731,688.976 z M50.755,685.424 L50.755,687.464 Q51.907,687.416 52.711,686.984 Q53.515,686.552 54.007,685.832 Q54.499,685.112 54.715,684.176 Q54.931,683.24 54.931,682.208 Q54.931,681.272 54.751,680.324 Q54.571,679.376 54.115,678.62 Q53.659,677.864 52.915,677.396 Q52.171,676.928 51.043,676.928 Q50.155,676.928 49.555,677.276 Q48.955,677.624 48.559,678.188 Q48.163,678.752 47.923,679.484 Q47.683,680.216 47.515,680.984 Q47.347,681.704 47.191,682.424 Q47.035,683.144 46.807,683.72 Q46.579,684.296 46.231,684.668 Q45.883,685.04 45.355,685.04 Q44.875,685.04 44.575,684.8 Q44.275,684.56 44.095,684.176 Q43.915,683.792 43.843,683.324 Q43.771,682.856 43.771,682.4 Q43.771,681.896 43.879,681.404 Q43.987,680.912 44.227,680.504 Q44.467,680.096 44.863,679.832 Q45.259,679.568 45.859,679.52 L45.859,677.48 Q44.731,677.552 43.975,677.96 Q43.219,678.368 42.775,679.052 Q42.331,679.736 42.151,680.624 Q41.971,681.512 41.971,682.568 Q41.971,683.384 42.175,684.212 Q42.379,685.04 42.799,685.7 Q43.219,686.36 43.891,686.78 Q44.563,687.2 45.499,687.2 Q46.699,687.2 47.371,686.6 Q48.043,686 48.415,685.1 Q48.787,684.2 48.991,683.144 Q49.195,682.088 49.447,681.188 Q49.699,680.288 50.107,679.688 Q50.515,679.088 51.307,679.088 Q51.883,679.088 52.255,679.376 Q52.627,679.664 52.819,680.108 Q53.011,680.552 53.083,681.08 Q53.155,681.608 53.155,682.088 Q53.155,682.712 53.035,683.3 Q52.915,683.888 52.639,684.356 Q52.363,684.824 51.895,685.112 Q51.427,685.4 50.755,685.424 z M44.923,671.552 L42.259,671.552 L42.259,674.216 L44.923,674.216 z M52.003,674.216 L54.667,674.216 L54.667,671.552 L52.003,671.552 z" fill="#515151"/>
    </g>
    <path d="M35,814 L55,814 L55,834 L35,834 L35,814 z" fill-opacity="0" stroke="#515151" stroke-width="1" id="Avkrysningsrute_-_timeføres"/>
    <path d="M55,664 L55,333.833" fill-opacity="0" stroke="#515151" stroke-width="1"/>
  </g>
</svg>
